<mxfile host="app.diagrams.net" modified="2022-11-18T01:35:03.550Z" agent="5.0 (Windows NT 10.0; Win64; x64) AppleWebKit/537.36 (KHTML, like Gecko) Chrome/107.0.0.0 Safari/537.36 Edg/107.0.1418.42" etag="LIerHd4FlsGEOS_lJIMa" version="20.5.3" type="github">
  <diagram id="U1FMwSItcwg7t5gCMyaE" name="第 1 页">
    <mxGraphModel dx="1422" dy="778" grid="1" gridSize="10" guides="1" tooltips="1" connect="1" arrows="1" fold="1" page="1" pageScale="1" pageWidth="827" pageHeight="1169" math="0" shadow="0">
      <root>
        <mxCell id="0" />
        <mxCell id="1" parent="0" />
        <mxCell id="3LiQr8wCGCh7OgG0KYY2-1" value="快控云平台" style="rounded=0;whiteSpace=wrap;html=1;" parent="1" vertex="1">
          <mxGeometry x="180" y="210" width="440" height="90" as="geometry" />
        </mxCell>
        <mxCell id="3LiQr8wCGCh7OgG0KYY2-3" value="转发平台" style="rounded=0;whiteSpace=wrap;html=1;align=right;" parent="1" vertex="1">
          <mxGeometry x="180" y="420" width="440" height="140" as="geometry" />
        </mxCell>
        <mxCell id="3LiQr8wCGCh7OgG0KYY2-4" value="" style="endArrow=classic;html=1;rounded=0;" parent="1" edge="1">
          <mxGeometry width="50" height="50" relative="1" as="geometry">
            <mxPoint x="500" y="390" as="sourcePoint" />
            <mxPoint x="660" y="330" as="targetPoint" />
          </mxGeometry>
        </mxCell>
        <mxCell id="3LiQr8wCGCh7OgG0KYY2-15" value="其他平台" style="rounded=0;whiteSpace=wrap;html=1;" parent="1" vertex="1">
          <mxGeometry x="180" y="660" width="440" height="110" as="geometry" />
        </mxCell>
        <mxCell id="3LiQr8wCGCh7OgG0KYY2-18" value="" style="endArrow=classic;html=1;rounded=0;entryX=0.136;entryY=0;entryDx=0;entryDy=0;entryPerimeter=0;exitX=0.139;exitY=1;exitDx=0;exitDy=0;exitPerimeter=0;fillColor=#fff2cc;strokeColor=#d6b656;" parent="1" edge="1">
          <mxGeometry width="50" height="50" relative="1" as="geometry">
            <mxPoint x="281.32000000000005" y="560" as="sourcePoint" />
            <mxPoint x="279.9999999999999" y="660" as="targetPoint" />
            <Array as="points">
              <mxPoint x="280.15999999999997" y="610" />
            </Array>
          </mxGeometry>
        </mxCell>
        <mxCell id="3LiQr8wCGCh7OgG0KYY2-19" value="定时上报" style="edgeLabel;html=1;align=center;verticalAlign=middle;resizable=0;points=[];" parent="3LiQr8wCGCh7OgG0KYY2-18" vertex="1" connectable="0">
          <mxGeometry x="-0.2997" relative="1" as="geometry">
            <mxPoint as="offset" />
          </mxGeometry>
        </mxCell>
        <mxCell id="3LiQr8wCGCh7OgG0KYY2-20" value="设备告警信息" style="text;html=1;strokeColor=#6c8ebf;fillColor=#dae8fc;align=center;verticalAlign=middle;whiteSpace=wrap;rounded=0;" parent="1" vertex="1">
          <mxGeometry x="200" y="420" width="100" height="140" as="geometry" />
        </mxCell>
        <mxCell id="3LiQr8wCGCh7OgG0KYY2-21" value="" style="endArrow=classic;html=1;rounded=0;entryX=0.14;entryY=0.007;entryDx=0;entryDy=0;exitX=0.5;exitY=1;exitDx=0;exitDy=0;entryPerimeter=0;fillColor=#ffe6cc;strokeColor=#d79b00;" parent="1" edge="1" source="L51531q8kxPah6j-Oe_d-1">
          <mxGeometry width="50" height="50" relative="1" as="geometry">
            <mxPoint x="216" y="294" as="sourcePoint" />
            <mxPoint x="214" y="421.98" as="targetPoint" />
          </mxGeometry>
        </mxCell>
        <mxCell id="3LiQr8wCGCh7OgG0KYY2-22" value="更新" style="edgeLabel;html=1;align=center;verticalAlign=middle;resizable=0;points=[];" parent="3LiQr8wCGCh7OgG0KYY2-21" vertex="1" connectable="0">
          <mxGeometry x="-0.2232" y="-3" relative="1" as="geometry">
            <mxPoint as="offset" />
          </mxGeometry>
        </mxCell>
        <mxCell id="L51531q8kxPah6j-Oe_d-1" value="新告警、状态变更" style="text;html=1;strokeColor=none;fillColor=none;align=center;verticalAlign=middle;whiteSpace=wrap;rounded=0;" vertex="1" parent="1">
          <mxGeometry x="185" y="268" width="60" height="30" as="geometry" />
        </mxCell>
        <mxCell id="L51531q8kxPah6j-Oe_d-4" value="设备配置信息" style="text;html=1;strokeColor=#6c8ebf;fillColor=#dae8fc;align=center;verticalAlign=middle;whiteSpace=wrap;rounded=0;" vertex="1" parent="1">
          <mxGeometry x="320" y="420" width="100" height="140" as="geometry" />
        </mxCell>
      </root>
    </mxGraphModel>
  </diagram>
</mxfile>
